# xmcd
#
# Track frame offsets: 
#        150
#        15482
#        30836
#        55430
#        77881
#        97697
#        117332
#        138035
#        157285
#        177068
#        196992
#
# Disc length: 2823 seconds
#
# Revision: 0
# Processed by: cddbd v1.5.2PL0 Copyright (c) Steve Scherf et al.
# Submitted via: ExactAudioCopy v0.99pb5
#
DISCID=7f0b050b
DTITLE=Tito Blues Band - Big City Jail
DYEAR=2011
DGENRE=Blues
TTITLE0=Woman across the river
TTITLE1=Need to hold you
TTITLE2=Gambler's roll
TTITLE3=Use me
TTITLE4=Black hearted woman
TTITLE5=Big city jail
TTITLE6=Three handed woman
TTITLE7=Me and my minor blues
TTITLE8=Ain't nobody's business
TTITLE9=To know you is to love you
TTITLE10=Swing for king
EXTD=
EXTT0=
EXTT1=
EXTT2=
EXTT3=
EXTT4=
EXTT5=
EXTT6=
EXTT7=
EXTT8=
EXTT9=
EXTT10=
PLAYORDER=
